<svg width="45" height="45" viewBox="0 0 45 45" fill="none" xmlns="http://www.w3.org/2000/svg">
<rect width="45" height="45" fill="#050505"/>
<path d="M10.2 21V16.272H9.048V14.916H10.716L10.2 15.384V14.508C10.2 13.716 10.404 13.12 10.812 12.72C11.228 12.32 11.848 12.12 12.672 12.12C12.856 12.12 13.052 12.132 13.26 12.156C13.476 12.18 13.664 12.228 13.824 12.3V13.692C13.712 13.652 13.584 13.624 13.44 13.608C13.296 13.584 13.156 13.572 13.02 13.572C12.836 13.572 12.664 13.604 12.504 13.668C12.352 13.732 12.228 13.84 12.132 13.992C12.044 14.136 12 14.332 12 14.58V15.216L11.748 14.916H13.536V16.272H12.012V21H10.2ZM16.8723 21.132C16.2243 21.132 15.6603 21.004 15.1803 20.748C14.7083 20.484 14.3403 20.116 14.0763 19.644C13.8203 19.172 13.6923 18.608 13.6923 17.952C13.6923 17.304 13.8203 16.744 14.0763 16.272C14.3403 15.8 14.7083 15.436 15.1803 15.18C15.6603 14.924 16.2243 14.796 16.8723 14.796C17.5203 14.796 18.0843 14.924 18.5643 15.18C19.0443 15.436 19.4123 15.8 19.6683 16.272C19.9323 16.744 20.0643 17.304 20.0643 17.952C20.0643 18.608 19.9323 19.172 19.6683 19.644C19.4123 20.116 19.0443 20.484 18.5643 20.748C18.0843 21.004 17.5203 21.132 16.8723 21.132ZM16.8723 19.764C17.2883 19.764 17.6163 19.616 17.8563 19.32C18.1043 19.024 18.2283 18.568 18.2283 17.952C18.2283 17.336 18.1043 16.884 17.8563 16.596C17.6163 16.308 17.2883 16.164 16.8723 16.164C16.4563 16.164 16.1243 16.308 15.8763 16.596C15.6363 16.884 15.5163 17.336 15.5163 17.952C15.5163 18.568 15.6363 19.024 15.8763 19.32C16.1243 19.616 16.4563 19.764 16.8723 19.764ZM23.8745 21.132C23.2265 21.132 22.6625 21.004 22.1825 20.748C21.7105 20.484 21.3425 20.116 21.0785 19.644C20.8225 19.172 20.6945 18.608 20.6945 17.952C20.6945 17.304 20.8225 16.744 21.0785 16.272C21.3425 15.8 21.7105 15.436 22.1825 15.18C22.6625 14.924 23.2265 14.796 23.8745 14.796C24.5225 14.796 25.0865 14.924 25.5665 15.18C26.0465 15.436 26.4145 15.8 26.6705 16.272C26.9345 16.744 27.0665 17.304 27.0665 17.952C27.0665 18.608 26.9345 19.172 26.6705 19.644C26.4145 20.116 26.0465 20.484 25.5665 20.748C25.0865 21.004 24.5225 21.132 23.8745 21.132ZM23.8745 19.764C24.2905 19.764 24.6185 19.616 24.8585 19.32C25.1065 19.024 25.2305 18.568 25.2305 17.952C25.2305 17.336 25.1065 16.884 24.8585 16.596C24.6185 16.308 24.2905 16.164 23.8745 16.164C23.4585 16.164 23.1265 16.308 22.8785 16.596C22.6385 16.884 22.5185 17.336 22.5185 17.952C22.5185 18.568 22.6385 19.024 22.8785 19.32C23.1265 19.616 23.4585 19.764 23.8745 19.764ZM30.3847 21.132C29.8567 21.132 29.3887 21.004 28.9807 20.748C28.5807 20.492 28.2647 20.128 28.0327 19.656C27.8087 19.184 27.6967 18.616 27.6967 17.952C27.6967 17.296 27.8087 16.732 28.0327 16.26C28.2567 15.788 28.5727 15.428 28.9807 15.18C29.3887 14.924 29.8567 14.796 30.3847 14.796C30.8647 14.796 31.2927 14.912 31.6687 15.144C32.0527 15.368 32.3087 15.672 32.4367 16.056H32.2807V12.168H34.0927V21H32.3047V19.812H32.4607C32.3327 20.212 32.0767 20.532 31.6927 20.772C31.3087 21.012 30.8727 21.132 30.3847 21.132ZM30.9247 19.764C31.3407 19.764 31.6767 19.616 31.9327 19.32C32.1887 19.024 32.3167 18.568 32.3167 17.952C32.3167 17.336 32.1887 16.884 31.9327 16.596C31.6767 16.308 31.3407 16.164 30.9247 16.164C30.5087 16.164 30.1687 16.308 29.9047 16.596C29.6487 16.884 29.5207 17.336 29.5207 17.952C29.5207 18.568 29.6487 19.024 29.9047 19.32C30.1687 19.616 30.5087 19.764 30.9247 19.764ZM9.744 33V26.916H11.556V33H9.744ZM9.672 25.92V24.228H11.616V25.92H9.672ZM15.857 33.132C14.801 33.132 13.977 32.848 13.385 32.28C12.793 31.712 12.497 30.94 12.497 29.964C12.497 29.332 12.621 28.78 12.869 28.308C13.125 27.836 13.477 27.468 13.925 27.204C14.381 26.932 14.913 26.796 15.521 26.796C16.121 26.796 16.621 26.924 17.021 27.18C17.429 27.436 17.733 27.796 17.933 28.26C18.141 28.716 18.245 29.248 18.245 29.856V30.276H13.985V29.376H16.925L16.721 29.544C16.721 29.04 16.617 28.66 16.409 28.404C16.209 28.14 15.917 28.008 15.533 28.008C15.109 28.008 14.781 28.164 14.549 28.476C14.325 28.788 14.213 29.236 14.213 29.82V30.012C14.213 30.604 14.357 31.044 14.645 31.332C14.941 31.62 15.365 31.764 15.917 31.764C16.245 31.764 16.553 31.724 16.841 31.644C17.137 31.556 17.417 31.42 17.681 31.236L18.185 32.436C17.881 32.66 17.529 32.832 17.129 32.952C16.737 33.072 16.313 33.132 15.857 33.132ZM21.3986 33.132C20.8546 33.132 20.3586 33.072 19.9106 32.952C19.4626 32.832 19.0826 32.664 18.7706 32.448L19.2386 31.248C19.5506 31.44 19.8946 31.592 20.2706 31.704C20.6546 31.816 21.0346 31.872 21.4106 31.872C21.7626 31.872 22.0226 31.816 22.1906 31.704C22.3586 31.592 22.4426 31.44 22.4426 31.248C22.4426 31.088 22.3866 30.964 22.2746 30.876C22.1706 30.788 22.0066 30.724 21.7826 30.684L20.5466 30.456C20.0266 30.352 19.6306 30.16 19.3586 29.88C19.0866 29.6 18.9506 29.236 18.9506 28.788C18.9506 28.396 19.0546 28.052 19.2626 27.756C19.4786 27.452 19.7866 27.216 20.1866 27.048C20.5866 26.88 21.0546 26.796 21.5906 26.796C22.0466 26.796 22.4786 26.852 22.8866 26.964C23.2946 27.076 23.6426 27.248 23.9306 27.48L23.4386 28.644C23.1906 28.46 22.9026 28.312 22.5746 28.2C22.2546 28.088 21.9466 28.032 21.6506 28.032C21.2666 28.032 20.9906 28.096 20.8226 28.224C20.6546 28.344 20.5706 28.5 20.5706 28.692C20.5706 28.836 20.6186 28.956 20.7146 29.052C20.8186 29.148 20.9746 29.22 21.1826 29.268L22.4306 29.496C22.9666 29.592 23.3746 29.772 23.6546 30.036C23.9346 30.3 24.0746 30.664 24.0746 31.128C24.0746 31.552 23.9626 31.912 23.7386 32.208C23.5146 32.504 23.1986 32.732 22.7906 32.892C22.3906 33.052 21.9266 33.132 21.3986 33.132Z" fill="white"/>
</svg>
