<svg xmlns="http://www.w3.org/2000/svg" style="display:none">
    <symbol id="icon-triangle-down" viewBox="0 0 12 6" fill="none">
        <path d="M1.5 0.75L6 5.25L10.5 0.75" stroke-width="1.5" stroke-linecap="round" stroke-linejoin="round"/>
    </symbol>
  

  <symbol id="icon-arrow-up"  viewBox="0 0 18 18" fill="none">
<path d="M5.25 12.75L12.75 5.25"  stroke-width="1.3" stroke-linecap="round" stroke-linejoin="round"/>
<path d="M5.25 5.25H12.75V12.75"  stroke-width="1.3" stroke-linecap="round" stroke-linejoin="round"/>
</symbol>
    <symbol id="icon-plus"  viewBox="0 0 17 16" fill="none">
        <path d="M8.5 3.333v9.334M3.834 8h9.333"  stroke-width="1.2" stroke-linecap="round" stroke-linejoin="round"/>
    </symbol>
    <symbol id="icon-burger" viewBox="0 0 40 32" fill="none">
        <path stroke-linejoin="round" stroke-linecap="round" stroke-miterlimit="4" stroke-width="3.7647" d="M39.529 1.882h-39.529"></path>
        <path stroke-linejoin="round" stroke-linecap="round" stroke-miterlimit="4" stroke-width="3.7647" d="M39.529 11.294h-39.529"></path>
        <path stroke-linejoin="round" stroke-linecap="round" stroke-miterlimit="4" stroke-width="3.7647" d="M39.529 20.706h-39.529"></path>
        <path stroke-linejoin="round" stroke-linecap="round" stroke-miterlimit="4" stroke-width="3.7647" d="M39.529 30.118h-39.529"></path>
    </symbol>
    <symbol id="icon-minus"  viewBox="0 0 24 24" fill="none">
        <path d="M5 12H19" stroke-width="1.5" stroke-linecap="round" stroke-linejoin="round" />
    </symbol>
    <symbol id="icon-close"  viewBox="0 0 16 16" fill="none">
        <path d="M12 4L4 12" stroke-width="1.5" stroke-linecap="round" stroke-linejoin="round" />
        <path d="M4 4L12 12" stroke-width="1.5" stroke-linecap="round" stroke-linejoin="round" />
    </symbol>
     <symbol id="icon-trash"  viewBox="0 0 20 20" fill="none">
        <path d="M7.5 2.5H12.5" stroke-width="2" stroke-linecap="round" stroke-linejoin="round" />
        <path d="M2.5 5H17.5M15.8333 5L15.2489 13.7661C15.1612 15.0813 15.1174 15.7389 14.8333 16.2375C14.5833 16.6765 14.206 17.0294 13.7514 17.2497C13.235 17.5 12.5759 17.5 11.2578 17.5H8.74221C7.42409 17.5 6.76503 17.5 6.24861 17.2497C5.79396 17.0294 5.41674 16.6765 5.16665 16.2375C4.88259 15.7389 4.83875 15.0813 4.75107 13.7661L4.16667 5" stroke-width="2" stroke-linecap="round" stroke-linejoin="round" />

    </symbol>
    <symbol id="arrow-recipes" fill="none"  viewBox="0 0 16 16">
        <path d="m4.666 11.333 6.667-6.666" stroke="#050505" stroke-width="1.3" stroke-linecap="round" stroke-linejoin="round"/>
        <path d="M4.666 4.667h6.667v6.666" stroke="#050505" stroke-width="1.3" stroke-linecap="round" stroke-linejoin="round"/>
    </symbol>
    <symbol id="icon-camera" viewBox="0 0 65 64" fill="none">
        <path d="M56.881 22.8571V13.6959C56.8811 12.0825 56.2414 10.5349 55.1023 9.39238C53.9631 8.24982 52.4175 7.60551 50.8041 7.60067L41.643 7.57324M56.881 41.1428V50.2856C56.881 51.9022 56.2389 53.4525 55.0958 54.5956C53.9527 55.7387 52.4024 56.3809 50.7858 56.3809H41.643M23.3572 7.57324L14.1961 7.60372C12.5827 7.60856 11.0371 8.25287 9.89792 9.39543C8.7588 10.538 8.11913 12.0856 8.11914 13.699V22.8571M23.3572 56.3809H14.2144C12.5978 56.3809 11.0475 55.7387 9.90439 54.5956C8.76132 53.4525 8.11914 51.9022 8.11914 50.2856V41.1428" stroke="#BFBEBE" stroke-linecap="round" stroke-linejoin="round"/>
        <path d="M32.5 37.5C33.75 37.5 34.8127 37.0627 35.688 36.188C36.5627 35.3127 37 34.25 37 33C37 31.75 36.5627 30.6873 35.688 29.812C34.8127 28.9373 33.75 28.5 32.5 28.5C31.25 28.5 30.1873 28.9373 29.312 29.812C28.4373 30.6873 28 31.75 28 33C28 34.25 28.4373 35.3127 29.312 36.188C30.1873 37.0627 31.25 37.5 32.5 37.5ZM24.5 41C23.95 41 23.4793 40.8043 23.088 40.413C22.696 40.021 22.5 39.55 22.5 39V27C22.5 26.45 22.696 25.9793 23.088 25.588C23.4793 25.196 23.95 25 24.5 25H27.65L29.5 23H35.5L37.35 25H40.5C41.05 25 41.521 25.196 41.913 25.588C42.3043 25.9793 42.5 26.45 42.5 27V39C42.5 39.55 42.3043 40.021 41.913 40.413C41.521 40.8043 41.05 41 40.5 41H24.5Z" fill="#BFBEBE"/>
    </symbol>
    <symbol id="icon-quotes"  width="59" height="48" fill="none" >
        <path d="M0 48V31.941c0-6 1.057-11.53 3.17-16.588C5.284 10.294 8.865 5.176 13.913 0l9.159 7.235c-2.936 2.942-5.166 5.706-6.693 8.294-1.526 2.589-2.524 5.236-2.994 7.942h11.272V48H0Zm34.343 0V31.941c0-6 1.057-11.53 3.17-16.588C39.627 10.294 43.208 5.176 48.257 0l9.158 7.235c-2.935 2.942-5.166 5.706-6.693 8.294-1.526 2.589-2.524 5.236-2.994 7.942H59V48H34.343Z" fill="#BFBEBE"/>
    </symbol>
</svg>
