<svg xmlns="http://www.w3.org/2000/svg" style="display:none">
    <symbol id="icon-triangle-down" viewBox="0 0 12 6" fill="none">
        <path d="M1.5 0.75L6 5.25L10.5 0.75" stroke-width="1.5" stroke-linecap="round" stroke-linejoin="round"/>
    </symbol>
    <symbol id="icon-arrow-up" viewBox="0 0 10 10" fill="none">
        <path  d="M8.74961 0.600098H1.24961C0.890624 0.600098 0.599609 0.891113 0.599609 1.2501C0.599609 1.60908 0.890624 1.9001 1.24961 1.9001H7.18037L0.78999 8.29048C0.536149 8.54432 0.536149 8.95588 0.78999 9.20972C1.04383 9.46356 1.45539 9.46356 1.70923 9.20972L8.09961 2.81934V8.7501C8.09961 9.10908 8.39062 9.4001 8.74961 9.4001C9.10859 9.4001 9.39961 9.10908 9.39961 8.7501V1.25121C9.39962 1.24749 9.39959 1.24377 9.39953 1.24005C9.39958 1.24339 9.39961 1.24674 9.39961 1.2501M9.2106 0.791859C9.21015 0.791398 9.20969 0.790938 9.20923 0.790478C9.20877 0.790019 9.20831 0.78956 9.20785 0.789102C9.14585 0.727466 9.07452 0.680905 8.99842 0.649419C9.07725 0.68211 9.14826 0.729868 9.20785 0.789102C9.20877 0.790018 9.20969 0.790937 9.2106 0.791859Z" />
    </symbol>
    <symbol id="icon-gas"   viewBox="0 0 14 17" fill="none">
        <path d="M12.6699 7.74467C12.44 7.46132 12.16 7.21576 11.9001 6.9702C11.2302 6.40352 10.4703 5.99739 9.83046 5.40238C8.34073 4.02345 8.01079 1.74727 8.96062 0C8.01079 0.217228 7.18094 0.708354 6.47107 1.2467C3.88155 3.2112 2.86173 6.67741 4.08151 9.6525C4.1215 9.74694 4.16149 9.84139 4.16149 9.96417C4.16149 10.172 4.01152 10.3609 3.81156 10.4364C3.5816 10.5309 3.34165 10.4742 3.15168 10.3231C3.09459 10.2785 3.04708 10.224 3.01171 10.1625C1.88191 8.81192 1.70194 6.87575 2.46181 5.32682C0.792111 6.6113 -0.117722 8.78358 0.0122545 10.8331C0.0722435 11.3053 0.132232 11.7776 0.302201 12.2498C0.442176 12.8165 0.712126 13.3832 1.01207 13.8837C2.09187 15.5177 3.96153 16.6888 5.97116 16.9249C8.11077 17.1799 10.4004 16.8116 12.0401 15.4138C13.8697 13.846 14.5096 11.3337 13.5698 9.18026L13.4398 8.9347C13.2298 8.50024 12.6699 7.74467 12.6699 7.74467ZM9.51052 13.6948C9.23057 13.9215 8.77065 14.1671 8.41072 14.2615C7.29092 14.6393 6.17113 14.1104 5.51125 13.4871C6.70103 13.2226 7.4109 12.3915 7.62086 11.5509C7.79083 10.7953 7.47089 10.172 7.34091 9.44471C7.22093 8.7458 7.24093 8.15079 7.51088 7.4991C7.70085 7.858 7.90081 8.2169 8.14077 8.50024C8.91063 9.44471 10.1204 9.86028 10.3804 11.1448C10.4203 11.277 10.4403 11.4092 10.4403 11.5509C10.4703 12.3254 10.1104 13.1754 9.51052 13.6948Z" fill="#101828"/>
    </symbol>
    <symbol id="icon-plus"  viewBox="0 0 17 16" fill="none">
        <path d="M8.5 3.333v9.334M3.834 8h9.333"  stroke-width="1.2" stroke-linecap="round" stroke-linejoin="round"/>
    </symbol>
    <symbol id="icon-burger" viewBox="0 0 40 32" fill="none">
        <path stroke-linejoin="round" stroke-linecap="round" stroke-miterlimit="4" stroke-width="3.7647" d="M39.529 1.882h-39.529"></path>
        <path stroke-linejoin="round" stroke-linecap="round" stroke-miterlimit="4" stroke-width="3.7647" d="M39.529 11.294h-39.529"></path>
        <path stroke-linejoin="round" stroke-linecap="round" stroke-miterlimit="4" stroke-width="3.7647" d="M39.529 20.706h-39.529"></path>
        <path stroke-linejoin="round" stroke-linecap="round" stroke-miterlimit="4" stroke-width="3.7647" d="M39.529 30.118h-39.529"></path>
    </symbol>
    <symbol id="icon-minus"  viewBox="0 0 24 24" fill="none">
        <path d="M5 12H19" stroke-width="1.5" stroke-linecap="round" stroke-linejoin="round" />
    </symbol>
    <symbol id="icon-close"  viewBox="0 0 16 16" fill="none">
        <path d="M12 4L4 12" stroke-width="1.5" stroke-linecap="round" stroke-linejoin="round" />
        <path d="M4 4L12 12" stroke-width="1.5" stroke-linecap="round" stroke-linejoin="round" />
    </symbol>
     <symbol id="icon-trash"  viewBox="0 0 20 20" fill="none">
        <path d="M7.5 2.5H12.5" stroke-width="2" stroke-linecap="round" stroke-linejoin="round" />
        <path d="M2.5 5H17.5M15.8333 5L15.2489 13.7661C15.1612 15.0813 15.1174 15.7389 14.8333 16.2375C14.5833 16.6765 14.206 17.0294 13.7514 17.2497C13.235 17.5 12.5759 17.5 11.2578 17.5H8.74221C7.42409 17.5 6.76503 17.5 6.24861 17.2497C5.79396 17.0294 5.41674 16.6765 5.16665 16.2375C4.88259 15.7389 4.83875 15.0813 4.75107 13.7661L4.16667 5" stroke-width="2" stroke-linecap="round" stroke-linejoin="round" />

    </symbol>
    <symbol id="arrow-recipes" fill="none"  viewBox="0 0 16 16">
        <path d="m4.666 11.333 6.667-6.666" stroke="#050505" stroke-width="1.3" stroke-linecap="round" stroke-linejoin="round"/>
        <path d="M4.666 4.667h6.667v6.666" stroke="#050505" stroke-width="1.3" stroke-linecap="round" stroke-linejoin="round"/>
    </symbol>
    <symbol id="icon-camera" viewBox="0 0 65 64" fill="none">
        <path d="M56.881 22.8571V13.6959C56.8811 12.0825 56.2414 10.5349 55.1023 9.39238C53.9631 8.24982 52.4175 7.60551 50.8041 7.60067L41.643 7.57324M56.881 41.1428V50.2856C56.881 51.9022 56.2389 53.4525 55.0958 54.5956C53.9527 55.7387 52.4024 56.3809 50.7858 56.3809H41.643M23.3572 7.57324L14.1961 7.60372C12.5827 7.60856 11.0371 8.25287 9.89792 9.39543C8.7588 10.538 8.11913 12.0856 8.11914 13.699V22.8571M23.3572 56.3809H14.2144C12.5978 56.3809 11.0475 55.7387 9.90439 54.5956C8.76132 53.4525 8.11914 51.9022 8.11914 50.2856V41.1428" stroke="#BFBEBE" stroke-linecap="round" stroke-linejoin="round"/>
        <path d="M32.5 37.5C33.75 37.5 34.8127 37.0627 35.688 36.188C36.5627 35.3127 37 34.25 37 33C37 31.75 36.5627 30.6873 35.688 29.812C34.8127 28.9373 33.75 28.5 32.5 28.5C31.25 28.5 30.1873 28.9373 29.312 29.812C28.4373 30.6873 28 31.75 28 33C28 34.25 28.4373 35.3127 29.312 36.188C30.1873 37.0627 31.25 37.5 32.5 37.5ZM24.5 41C23.95 41 23.4793 40.8043 23.088 40.413C22.696 40.021 22.5 39.55 22.5 39V27C22.5 26.45 22.696 25.9793 23.088 25.588C23.4793 25.196 23.95 25 24.5 25H27.65L29.5 23H35.5L37.35 25H40.5C41.05 25 41.521 25.196 41.913 25.588C42.3043 25.9793 42.5 26.45 42.5 27V39C42.5 39.55 42.3043 40.021 41.913 40.413C41.521 40.8043 41.05 41 40.5 41H24.5Z" fill="#BFBEBE"/>
    </symbol>
</svg>
