<svg xmlns="http://www.w3.org/2000/svg" width="20" height="20" viewBox="0 0 20 20" fill="none">
  <path d="M12.2 2.9001C12.35 2.9001 12.5 2.9001 12.8 2.9001V5.1501C12.65 5.1501 12.35 5.1501 12.05 5.1501C11.75 5.1501 11.45 5.1501 11.3 5.3001C11.15 5.4501 11.15 5.6001 11.15 5.9501C11.15 6.2501 11.15 6.4501 11.15 6.7501H12.8V8.6501H11.15V16.9001H8.60001V8.6001H7.25V6.7001H8.60001V6.0501C8.60001 4.9501 8.75 4.1501 9.05 3.8001C9.5 3.1501 10.4 2.8501 11.75 2.8501C11.9 2.9001 12.05 2.9001 12.2 2.9001Z" fill="#050505"/>
</svg>