<svg xmlns="http://www.w3.org/2000/svg" width="18" height="13" viewBox="0 0 18 13" fill="none">
  <path d="M17.82 2.84762C17.82 2.84762 17.64 1.54762 17.1 0.990476C16.44 0.247619 15.66 0.247619 15.3 0.185714C12.78 1.10694e-07 9 0 9 0C9 0 5.22 1.10694e-07 2.7 0.185714C2.34 0.247619 1.56 0.247619 0.9 0.990476C0.36 1.54762 0.18 2.84762 0.18 2.84762C0.18 2.84762 0 4.33333 0 5.81905V7.18095C0 8.66667 0.18 10.2143 0.18 10.2143C0.18 10.2143 0.36 11.5143 0.9 12.0714C1.56 12.8143 2.46 12.8143 2.88 12.8762C4.32 12.9381 9 13 9 13C9 13 12.78 13 15.3 12.8143C15.66 12.7524 16.44 12.7524 17.1 12.0095C17.64 11.4524 17.82 10.1524 17.82 10.1524C17.82 10.1524 18 8.66667 18 7.18095V5.81905C18 4.33333 17.82 2.84762 17.82 2.84762ZM7.14 8.91429V3.71429L12 6.31429L7.14 8.91429Z" fill="#050505"/>
</svg>